<svg id="katman_1" data-name="katman 1" xmlns="http://www.w3.org/2000/svg" viewBox="0 0 315 89.54"><defs><style>.cls-1{fill:#1f2829;}.cls-2{font-size:21px;font-family:Lato-Medium, Lato;font-weight:500;}.cls-2,.cls-5{fill:#fff;}.cls-3{letter-spacing:0em;}.cls-4{font-family:Lato-Bold, Lato;font-weight:700;}</style></defs><rect class="cls-1" width="315" height="89.54" rx="20.19"/><text class="cls-2" transform="translate(79.52 41.89)"><tspan class="cls-3">S</tspan><tspan x="11.34" y="0">imple</tspan><tspan class="cls-4"><tspan x="0" y="25.2">TimeSheet Management</tspan></tspan></text><path class="cls-5" d="M564,356c4-.61,8.14,1.45,12.43,2.85.76.25,1.55.61,1.29,1.74-.54,2.36-6.54,6.06-8.93,5.48-12.55-3-24.18,4.41-26.64,17.06A21.62,21.62,0,0,0,568,408.2c3.17-.71,8.7,2.17,9.63,5.12.67,2.12-1.42,2.09-2.45,2.56-13.24,6-30.12.64-38.12-12.08-6.29-10-6.68-21-1.63-30.89C540.82,362.23,550.44,355.89,564,356Z" transform="translate(-522.09 -339.73)"/><path class="cls-5" d="M587,406.87a9,9,0,0,1-2.93,3.3c-1.22,1-2,0-2.77-.81-3.6-3.61-7.12-7.29-10.81-10.82-1.89-1.8-1-2.92.42-4.37s2.45-1.9,4-.23c3.52,3.68,7.19,7.22,10.78,10.85C586.31,405.35,587.11,405.8,587,406.87Z" transform="translate(-522.09 -339.73)"/><path class="cls-5" d="M582.8,363.59c2-.1,2.71,1.12,3.45,2.25a2.27,2.27,0,0,1-.5,3.21c-3.73,3.68-7.39,7.45-11.06,11.2-1.23,1.26-2.42,1.28-3.43-.15-.77-1.1-3.07-1.91-1.54-3.64,3.8-4.29,7.82-8.39,11.81-12.51C581.85,363.61,582.56,363.65,582.8,363.59Z" transform="translate(-522.09 -339.73)"/><path class="cls-5" d="M563.12,392.29c-3.23-.37-5-2.22-5.24-5.35a5.32,5.32,0,0,1,5.55-5.36c3.19.35,5,2.37,5,5.52S566.25,392,563.12,392.29Z" transform="translate(-522.09 -339.73)"/></svg>