<svg id="katman_1" data-name="katman 1" xmlns="http://www.w3.org/2000/svg" viewBox="0 0 84 73.85"><defs><style>.cls-1{fill:#1f2829;}.cls-2{fill:#fff;}</style></defs><rect class="cls-1" width="84" height="73.85" rx="23.88"/><path class="cls-2" d="M684.87,357.54c3.46-.52,7,1.26,10.77,2.47.66.22,1.34.53,1.12,1.51-.47,2-5.66,5.25-7.74,4.74A18.51,18.51,0,0,0,666,381a18.71,18.71,0,0,0,22.38,21.73c2.74-.61,7.54,1.88,8.34,4.43.58,1.84-1.23,1.81-2.12,2.22-11.47,5.22-26.09.55-33-10.46-5.45-8.65-5.79-18.16-1.41-26.75C664.85,363,673.18,357.47,684.87,357.54Z" transform="translate(-641 -347.58)"/><path class="cls-2" d="M704.86,401.62a7.71,7.71,0,0,1-2.54,2.85c-1.05.89-1.72,0-2.39-.69-3.12-3.13-6.17-6.32-9.36-9.37-1.64-1.57-.85-2.53.36-3.79s2.12-1.64,3.5-.2c3.05,3.19,6.23,6.26,9.33,9.4C704.24,400.3,704.93,400.7,704.86,401.62Z" transform="translate(-641 -347.58)"/><path class="cls-2" d="M701.2,364.14c1.7-.09,2.35,1,3,1.95a2,2,0,0,1-.43,2.78c-3.24,3.19-6.4,6.45-9.58,9.7-1.07,1.09-2.1,1.11-3-.13-.67-.95-2.66-1.66-1.34-3.15,3.29-3.72,6.78-7.27,10.23-10.84C700.38,364.16,701,364.19,701.2,364.14Z" transform="translate(-641 -347.58)"/><path class="cls-2" d="M684.16,389c-2.8-.32-4.35-1.92-4.54-4.64a4.6,4.6,0,0,1,4.81-4.64,4.39,4.39,0,0,1,4.29,4.78C688.65,387.28,686.87,388.72,684.16,389Z" transform="translate(-641 -347.58)"/></svg>