<svg id="katman_1" data-name="katman 1" xmlns="http://www.w3.org/2000/svg" viewBox="0 0 299.14 62.49"><defs><style>.cls-1{font-size:21px;font-family:Lato-Medium, Lato;font-weight:500;}.cls-1,.cls-4{fill:#1f2829;}.cls-2{letter-spacing:0em;}.cls-3{font-family:Lato-Bold, Lato;font-weight:700;}</style></defs><text class="cls-1" transform="translate(69.7 25.76)"><tspan class="cls-2">S</tspan><tspan x="11.34" y="0">imple</tspan><tspan class="cls-3"><tspan x="0" y="25.2">TimeSheet Management</tspan></tspan></text><path class="cls-4" d="M559.83,351.83c4-.6,8.14,1.46,12.43,2.86.76.25,1.55.61,1.29,1.74-.54,2.36-6.54,6.06-8.93,5.48-12.55-3-24.18,4.41-26.64,17.06a21.62,21.62,0,0,0,25.85,25.1c3.17-.71,8.7,2.17,9.63,5.12.67,2.12-1.42,2.09-2.45,2.56-13.24,6-30.12.64-38.12-12.08-6.29-10-6.68-21-1.63-30.89C536.7,358.1,546.32,351.76,559.83,351.83Z" transform="translate(-527.79 -351.73)"/><path class="cls-4" d="M582.91,402.74A8.88,8.88,0,0,1,580,406c-1.22,1-2,0-2.77-.8-3.6-3.61-7.12-7.3-10.81-10.82-1.89-1.81-1-2.92.42-4.37s2.45-1.9,4-.23c3.52,3.68,7.19,7.22,10.78,10.85C582.19,401.22,583,401.67,582.91,402.74Z" transform="translate(-527.79 -351.73)"/><path class="cls-4" d="M578.68,359.46c2-.1,2.71,1.11,3.45,2.25a2.27,2.27,0,0,1-.5,3.21c-3.74,3.68-7.39,7.45-11.06,11.2-1.23,1.26-2.42,1.28-3.43-.15-.77-1.1-3.07-1.91-1.54-3.64,3.8-4.29,7.82-8.39,11.81-12.52C577.73,359.48,578.44,359.52,578.68,359.46Z" transform="translate(-527.79 -351.73)"/><path class="cls-4" d="M559,388.16c-3.23-.37-5-2.22-5.24-5.35a5.31,5.31,0,0,1,5.55-5.36c3.19.35,5,2.37,5,5.52S562.13,387.85,559,388.16Z" transform="translate(-527.79 -351.73)"/></svg>